<svg width="684" height="218" viewBox="0 0 684 218" fill="none" xmlns="http://www.w3.org/2000/svg">
<path id="Bookly" d="M0.645218 6.87825V167H61.3944C94.5833 167 113.798 148.756 113.798 122.36C113.798 96.5464 99.6296 85.4835 79.6386 81.9899C93.2247 75.0028 99.6296 62.3871 99.6296 47.6365C99.6296 17.1649 77.8918 6.87825 50.3315 6.87825H0.645218ZM37.1336 69.5683V35.0209H40.0449C55.96 35.0209 64.3057 39.873 64.3057 51.3242C64.3057 64.7162 55.7659 69.5683 40.0449 69.5683H37.1336ZM37.1336 138.857V101.01H48.5847C65.8584 101.01 75.3687 106.251 75.3687 121.001C75.3687 133.617 65.8584 138.857 48.5847 138.857H37.1336ZM122.729 117.314C122.729 147.979 146.796 169.911 182.702 169.911C217.055 169.911 242.092 147.979 242.092 117.314C242.092 86.2598 215.697 64.5221 182.702 64.5221C149.125 64.5221 122.729 86.2598 122.729 117.314ZM159.217 117.314C159.217 103.534 169.504 93.8292 182.508 93.8292C195.317 93.8292 205.604 103.534 205.604 117.314C205.604 130.9 195.9 140.604 182.508 140.604C168.533 140.604 159.217 130.9 159.217 117.314ZM251.046 117.314C251.046 147.979 275.113 169.911 311.019 169.911C345.372 169.911 370.41 147.979 370.41 117.314C370.41 86.2598 344.014 64.5221 311.019 64.5221C277.442 64.5221 251.046 86.2598 251.046 117.314ZM287.535 117.314C287.535 103.534 297.821 93.8292 310.825 93.8292C323.635 93.8292 333.921 103.534 333.921 117.314C333.921 130.9 324.217 140.604 310.825 140.604C296.851 140.604 287.535 130.9 287.535 117.314ZM500.28 67.4334H455.64L420.898 102.175V0.0852118H386.545V167H420.898V127.212L460.686 167H504.938L452.922 114.985L500.28 67.4334ZM512.019 167H546.372V0.0852118H512.019V167ZM644.001 67.4334L620.322 118.478L592.568 67.4334H552.974L600.137 151.473L565.784 217.463H605.378L683.595 67.4334H644.001Z" fill="#2D3047"/>
</svg>
